<?xml version="1.0" encoding="UTF-8"?>
<svg xmlns="http://www.w3.org/2000/svg" xmlns:xlink="http://www.w3.org/1999/xlink" width="567.574pt" height="284.936pt" viewBox="0 0 567.574 284.936">
<path fill-rule="evenodd" fill="rgb(82.398987%, 67.098999%, 40.39917%)" fill-opacity="1" d="M 129.722656 132.269531 L 108.378906 132.269531 L 99.574219 114.1875 L 120.914062 114.1875 Z M 129.722656 132.269531 "/>
<path fill-rule="evenodd" fill="rgb(82.398987%, 67.098999%, 40.39917%)" fill-opacity="1" d="M 154.371094 132.269531 L 133.027344 132.269531 L 124.21875 114.1875 L 145.5625 114.1875 Z M 154.371094 132.269531 "/>
<path fill-rule="evenodd" fill="rgb(82.398987%, 67.098999%, 40.39917%)" fill-opacity="1" d="M 179.019531 132.269531 L 157.675781 132.269531 L 148.867188 114.1875 L 170.210938 114.1875 Z M 179.019531 132.269531 "/>
<path fill-rule="evenodd" fill="rgb(82.398987%, 67.098999%, 40.39917%)" fill-opacity="1" d="M 139.296875 152.828125 L 117.953125 152.828125 L 109.144531 134.746094 L 130.484375 134.746094 Z M 139.296875 152.828125 "/>
<path fill-rule="evenodd" fill="rgb(82.398987%, 67.098999%, 40.39917%)" fill-opacity="1" d="M 163.941406 152.828125 L 142.601562 152.828125 L 133.792969 134.746094 L 155.132812 134.746094 Z M 163.941406 152.828125 "/>
<path fill-rule="evenodd" fill="rgb(82.398987%, 67.098999%, 40.39917%)" fill-opacity="1" d="M 188.589844 152.828125 L 167.25 152.828125 L 158.441406 134.746094 L 179.78125 134.746094 Z M 188.589844 152.828125 "/>
<path fill-rule="evenodd" fill="rgb(82.398987%, 67.098999%, 40.39917%)" fill-opacity="1" d="M 148.867188 173.386719 L 127.527344 173.386719 L 118.71875 155.304688 L 140.058594 155.304688 Z M 148.867188 173.386719 "/>
<path fill-rule="evenodd" fill="rgb(82.398987%, 67.098999%, 40.39917%)" fill-opacity="1" d="M 173.515625 173.386719 L 152.175781 173.386719 L 143.367188 155.304688 L 164.707031 155.304688 Z M 173.515625 173.386719 "/>
<path fill-rule="evenodd" fill="rgb(82.398987%, 67.098999%, 40.39917%)" fill-opacity="1" d="M 198.164062 173.386719 L 176.820312 173.386719 L 168.015625 155.304688 L 189.355469 155.304688 Z M 198.164062 173.386719 "/>
<path fill-rule="nonzero" fill="rgb(28.599548%, 43.099976%, 43.099976%)" fill-opacity="1" d="M 197.8125 167.265625 L 201.28125 175.667969 L 192.574219 175.667969 C 182.691406 188.699219 167.042969 197.117188 149.429688 197.117188 C 119.539062 197.117188 95.304688 172.882812 95.304688 142.992188 C 95.304688 134.964844 97.054688 127.34375 100.191406 120.492188 L 95.304688 111.390625 L 105.488281 111.390625 C 115.316406 97.75 131.335938 88.867188 149.429688 88.867188 C 179.320312 88.867188 203.554688 113.101562 203.554688 142.992188 C 203.554688 151.71875 201.484375 159.964844 197.8125 167.265625 M 219.574219 133.320312 L 229.796875 127.644531 C 227.878906 120.488281 228.140625 121.460938 226.222656 114.308594 L 214.53125 114.5 C 206.351562 114.636719 201.207031 105.726562 205.417969 98.710938 L 211.429688 88.683594 C 206.191406 83.449219 206.902344 84.160156 201.667969 78.921875 L 191.640625 84.933594 C 184.625 89.144531 175.714844 84 175.851562 75.816406 L 176.042969 64.128906 C 168.890625 62.210938 169.863281 62.472656 162.707031 60.554688 L 157.03125 70.777344 C 153.058594 77.929688 142.773438 77.929688 138.796875 70.777344 L 133.121094 60.554688 C 125.96875 62.472656 126.941406 62.210938 119.785156 64.128906 L 119.980469 75.816406 C 120.117188 84 111.207031 89.144531 104.191406 84.933594 L 94.164062 78.921875 C 88.925781 84.160156 89.636719 83.449219 84.402344 88.683594 L 90.414062 98.710938 C 94.621094 105.726562 89.480469 114.636719 81.296875 114.5 L 69.609375 114.308594 C 67.691406 121.460938 67.949219 120.488281 66.035156 127.644531 L 76.253906 133.320312 C 83.40625 137.292969 83.40625 147.578125 76.253906 151.554688 L 66.035156 157.230469 C 67.953125 164.382812 67.691406 163.410156 69.609375 170.566406 L 81.296875 170.371094 C 89.480469 170.234375 94.621094 179.144531 90.414062 186.160156 L 84.402344 196.1875 L 94.164062 205.949219 L 104.191406 199.9375 C 111.207031 195.730469 120.117188 200.871094 119.980469 209.054688 L 119.785156 220.742188 C 126.941406 222.660156 125.96875 222.398438 133.121094 224.316406 L 138.796875 214.097656 C 142.773438 206.945312 153.058594 206.945312 157.03125 214.097656 L 162.707031 224.316406 C 169.863281 222.398438 168.890625 222.660156 176.042969 220.742188 L 175.851562 209.054688 C 175.714844 200.871094 184.625 195.730469 191.640625 199.9375 L 201.667969 205.949219 C 206.902344 200.714844 206.191406 201.425781 211.429688 196.1875 L 205.417969 186.160156 C 201.207031 179.144531 206.351562 170.234375 214.53125 170.371094 L 226.222656 170.566406 C 228.140625 163.410156 227.878906 164.382812 229.796875 157.230469 L 219.574219 151.554688 C 212.421875 147.578125 212.421875 137.292969 219.574219 133.320312 "/>
<path fill-rule="nonzero" fill="rgb(28.599548%, 43.099976%, 43.099976%)" fill-opacity="1" d="M 477.175781 142.625 C 479.507812 142.625 481.296875 142.246094 482.492188 141.214844 C 484.28125 139.695312 485.039062 137.636719 485.039062 134.871094 C 485.039062 129.121094 481.730469 127.058594 478.695312 127.058594 C 477.230469 127.058594 476.523438 127.277344 476.199219 127.601562 C 475.820312 127.929688 475.710938 128.578125 475.710938 129.664062 L 475.710938 142.625 Z M 497.839844 160.359375 C 497.515625 160.359375 496.863281 160.359375 496.210938 160.304688 C 489.324219 159.980469 487.316406 158.515625 485.691406 156.238281 C 483.523438 153.253906 481.949219 149.949219 480.105469 146.695312 C 479.289062 145.230469 478.53125 144.902344 476.796875 144.902344 L 475.710938 144.847656 L 475.710938 152.765625 C 475.710938 157.160156 476.253906 157.539062 480.320312 158.027344 L 480.320312 160.035156 L 463.726562 160.035156 L 463.726562 158.027344 C 467.847656 157.59375 468.335938 157.160156 468.335938 152.765625 L 468.335938 131.996094 C 468.335938 127.710938 467.792969 127.113281 463.726562 126.789062 L 463.726562 124.78125 L 479.453125 124.78125 C 484.28125 124.78125 487.046875 125.324219 489.269531 126.84375 C 491.4375 128.308594 492.902344 130.695312 492.902344 134.054688 C 492.902344 138.882812 489.703125 141.433594 486.125 142.84375 C 486.9375 144.46875 489.054688 147.996094 490.679688 150.488281 C 492.578125 153.472656 493.769531 154.9375 494.800781 156.128906 C 496.050781 157.539062 496.644531 157.972656 498.21875 158.515625 Z M 439.972656 126.410156 C 434.441406 126.410156 430.375 131.832031 430.375 141.433594 C 430.375 150.597656 434.007812 158.464844 441.332031 158.464844 C 446.484375 158.464844 450.496094 153.472656 450.496094 143.546875 C 450.496094 132.808594 446.265625 126.410156 439.972656 126.410156 M 440.789062 124.023438 C 450.820312 124.023438 459.011719 131.34375 459.011719 142.027344 C 459.011719 153.582031 450.765625 160.847656 440.515625 160.847656 C 429.671875 160.847656 421.804688 152.929688 421.804688 142.464844 C 421.804688 133.1875 428.421875 124.023438 440.789062 124.023438 M 400.878906 160.035156 L 400.878906 158.027344 C 405 157.59375 405.269531 157.214844 405.269531 152.332031 L 405.214844 131.183594 C 401.308594 140.511719 397.027344 150.816406 393.121094 160.035156 L 391.332031 160.035156 C 387.804688 151.195312 383.957031 141.105469 380.050781 131.617188 C 379.347656 148.644531 379.347656 152.007812 379.347656 153.960938 C 379.398438 156.890625 380.484375 157.648438 384.554688 158.027344 L 384.554688 160.035156 L 371.101562 160.035156 L 371.101562 158.027344 C 374.191406 157.757812 375.605469 157.160156 376.039062 153.90625 C 376.253906 152.28125 376.472656 149.1875 377.71875 131.289062 C 377.882812 128.6875 377.503906 127.222656 372.835938 126.789062 L 372.835938 124.78125 L 384.554688 124.78125 L 395.019531 148.699219 L 405.542969 124.78125 L 416.984375 124.78125 L 416.984375 126.789062 C 412.644531 127.222656 412.160156 127.65625 412.265625 131.996094 L 412.699219 152.332031 C 412.753906 157.214844 412.972656 157.433594 417.367188 158.027344 L 417.367188 160.035156 Z M 350.550781 134.109375 C 348.980469 138.015625 347.460938 141.648438 346.105469 145.609375 L 354.726562 145.609375 Z M 355.324219 160.035156 L 355.324219 158.027344 C 358.742188 157.539062 358.742188 156.945312 357.980469 154.613281 C 357.4375 152.984375 356.570312 150.542969 355.757812 148.375 L 345.179688 148.375 C 344.585938 150.054688 343.828125 152.117188 343.285156 153.796875 C 342.144531 157.214844 343.445312 157.648438 347.730469 158.027344 L 347.730469 160.035156 L 334.335938 160.035156 L 334.335938 158.027344 C 337.753906 157.59375 338.621094 157.105469 340.464844 152.550781 L 351.746094 124.511719 L 354.347656 124.023438 C 357.820312 133.460938 361.507812 143.113281 365.03125 152.171875 C 367.039062 157.214844 367.527344 157.59375 371.050781 158.027344 L 371.050781 160.035156 Z M 334.230469 126.789062 C 330.921875 127.222656 329.890625 127.929688 329.730469 130.367188 C 329.566406 132.484375 329.40625 134.328125 329.40625 139.046875 L 329.40625 160.632812 L 326.367188 160.632812 L 303.75 133.515625 L 303.75 145.769531 C 303.75 150.488281 303.859375 152.605469 304.023438 154.179688 C 304.238281 156.5625 305.378906 157.8125 309.390625 158.027344 L 309.390625 160.035156 L 295.941406 160.035156 L 295.941406 158.027344 C 299.03125 157.757812 300.386719 156.945312 300.714844 154.394531 C 300.929688 152.441406 301.039062 150.488281 301.039062 145.769531 L 301.039062 132.917969 C 301.039062 131.128906 300.929688 129.933594 299.902344 128.523438 C 298.925781 127.167969 297.625 127.007812 295.34375 126.789062 L 295.34375 124.78125 L 305.921875 124.78125 L 326.585938 148.808594 L 326.585938 139.046875 C 326.585938 134.328125 326.53125 132.539062 326.367188 130.53125 C 326.203125 128.199219 325.335938 127.058594 320.835938 126.789062 L 320.835938 124.78125 L 334.230469 124.78125 Z M 294.699219 126.789062 C 291.226562 127.167969 289.980469 127.929688 288.027344 131.238281 C 286.074219 134.597656 284.394531 137.582031 281.734375 143.003906 C 281.300781 143.875 281.136719 144.523438 281.136719 145.878906 L 281.136719 152.605469 C 281.136719 157.324219 281.570312 157.488281 286.019531 158.027344 L 286.019531 160.035156 L 268.882812 160.035156 L 268.882812 158.027344 C 273.167969 157.488281 273.546875 157.324219 273.546875 152.605469 L 273.546875 146.367188 C 273.546875 145.175781 273.328125 144.632812 272.949219 143.875 C 271.375 140.671875 269.371094 137.039062 266.117188 131.34375 C 264.109375 127.820312 263.296875 127.113281 260.148438 126.789062 L 260.148438 124.78125 L 276.039062 124.78125 L 276.039062 126.789062 C 272.40625 127.277344 272.515625 127.984375 273.4375 129.878906 C 275.226562 133.40625 277.558594 137.746094 279.621094 141.703125 C 281.246094 138.667969 283.851562 133.460938 285.371094 130.152344 C 286.398438 127.984375 285.964844 127.277344 282.0625 126.789062 L 282.0625 124.78125 L 294.699219 124.78125 Z M 255.652344 133.730469 C 254.566406 130.261719 253.046875 126.300781 248.058594 126.300781 C 244.914062 126.300781 242.851562 128.523438 242.851562 131.5625 C 242.851562 134.542969 244.859375 136.335938 249.632812 138.722656 C 255.433594 141.59375 259.125 144.414062 259.125 149.785156 C 259.125 156.183594 253.808594 160.847656 246.050781 160.847656 C 242.582031 160.847656 239.488281 159.925781 236.941406 159.167969 C 236.613281 157.921875 235.691406 152.28125 235.3125 149.730469 L 237.429688 149.242188 C 238.511719 152.660156 241.550781 158.570312 246.867188 158.570312 C 250.175781 158.570312 252.179688 156.511719 252.179688 153.039062 C 252.179688 149.894531 250.226562 148.050781 245.671875 145.609375 C 240.03125 142.570312 236.34375 139.859375 236.34375 134.21875 C 236.34375 128.523438 240.789062 124.023438 248.925781 124.023438 C 252.667969 124.023438 255.488281 124.835938 256.683594 125 C 256.898438 127.007812 257.277344 129.828125 257.714844 133.242188 Z M 255.652344 133.730469 "/>
<path fill-rule="nonzero" fill="rgb(82.398987%, 67.098999%, 40.39917%)" fill-opacity="1" d="M 501.113281 173.984375 C 499.3125 174.1875 499.003906 174.472656 497.972656 176.121094 C 496.8125 178 495.859375 179.777344 494.597656 182.070312 C 494.289062 182.660156 494.210938 182.972656 494.210938 183.589844 L 494.210938 186.757812 C 494.210938 188.894531 494.445312 189.050781 496.839844 189.28125 L 496.839844 190 L 489.449219 190 L 489.449219 189.28125 C 491.792969 188.972656 491.972656 188.921875 491.972656 186.757812 L 491.972656 183.433594 C 491.972656 182.917969 491.871094 182.6875 491.457031 181.941406 C 490.554688 180.265625 489.679688 178.644531 488.289062 176.222656 C 487.285156 174.472656 487.027344 174.164062 485.277344 173.984375 L 485.277344 173.261719 L 491.613281 173.261719 L 491.613281 173.984375 C 489.757812 174.242188 489.859375 174.574219 490.324219 175.453125 C 491.40625 177.433594 492.617188 179.753906 493.699219 181.683594 C 494.625 179.957031 496.09375 177.152344 496.8125 175.734375 C 497.40625 174.445312 497.328125 174.1875 495.292969 173.984375 L 495.292969 173.261719 L 501.113281 173.261719 Z M 474.621094 182.972656 C 473.027344 183.175781 472.921875 183.332031 472.921875 184.851562 L 472.921875 187.015625 C 472.921875 187.914062 472.949219 188.765625 473.078125 189.460938 C 471.480469 189.820312 469.394531 190.386719 467.230469 190.386719 C 461.386719 190.386719 457.832031 186.757812 457.832031 181.582031 C 457.832031 176.148438 462.261719 172.902344 467.410156 172.902344 C 470.039062 172.902344 471.96875 173.417969 472.769531 173.546875 C 472.820312 174.5 472.949219 176.070312 473.15625 177.691406 L 472.382812 177.847656 C 471.761719 175.65625 471.015625 174.730469 469.394531 174.1875 C 468.800781 173.984375 467.746094 173.855469 467 173.855469 C 463.058594 173.855469 460.507812 176.558594 460.507812 181.269531 C 460.507812 185.367188 462.621094 189.433594 467.617188 189.433594 C 468.492188 189.433594 469.292969 189.253906 469.804688 188.996094 C 470.347656 188.6875 470.683594 188.40625 470.683594 187.347656 L 470.683594 185.238281 C 470.683594 183.359375 470.476562 183.152344 468.003906 182.972656 L 468.003906 182.222656 L 474.621094 182.222656 Z M 436.335938 173.855469 C 433.449219 173.855469 430.824219 176.273438 430.824219 181.089844 C 430.824219 185.882812 433.449219 189.410156 437.109375 189.410156 C 440.222656 189.410156 442.566406 187.089844 442.566406 182.121094 C 442.566406 176.710938 439.707031 173.855469 436.335938 173.855469 M 436.851562 172.902344 C 441.253906 172.902344 445.195312 176.273438 445.195312 181.398438 C 445.195312 186.9375 441.433594 190.386719 436.695312 190.386719 C 431.75 190.386719 428.144531 186.628906 428.144531 181.785156 C 428.144531 177.175781 431.414062 172.902344 436.851562 172.902344 M 416.382812 185.726562 C 416.226562 186.523438 415.453125 189.203125 415.199219 190 L 403.222656 190 L 403.222656 189.28125 C 405.566406 189.050781 405.773438 188.921875 405.773438 186.730469 L 405.773438 176.507812 C 405.773438 174.316406 405.515625 174.1875 403.453125 173.984375 L 403.453125 173.261719 L 410.355469 173.261719 L 410.355469 173.984375 C 408.296875 174.1875 408.011719 174.292969 408.011719 176.507812 L 408.011719 186.988281 C 408.011719 188.558594 408.21875 188.921875 409.6875 188.945312 C 409.710938 188.945312 411.566406 188.972656 411.722656 188.972656 C 413.035156 188.972656 413.421875 188.816406 414.015625 188.171875 C 414.65625 187.503906 415.199219 186.472656 415.582031 185.519531 Z M 382.320312 173.855469 C 379.433594 173.855469 376.808594 176.273438 376.808594 181.089844 C 376.808594 185.882812 379.433594 189.410156 383.09375 189.410156 C 386.207031 189.410156 388.550781 187.089844 388.550781 182.121094 C 388.550781 176.710938 385.691406 173.855469 382.320312 173.855469 M 382.835938 172.902344 C 387.238281 172.902344 391.175781 176.273438 391.175781 181.398438 C 391.175781 186.9375 387.417969 190.386719 382.679688 190.386719 C 377.734375 190.386719 374.128906 186.628906 374.128906 181.785156 C 374.128906 177.175781 377.398438 172.902344 382.835938 172.902344 M 362.339844 173.984375 C 360.695312 174.164062 360.152344 174.421875 360.074219 175.605469 C 360.050781 176.429688 360 177.511719 360 179.90625 L 360 190.234375 L 359.019531 190.234375 L 348 176.765625 L 348 183.203125 C 348 185.519531 348.074219 186.679688 348.125 187.425781 C 348.179688 188.738281 348.820312 189.125 350.675781 189.28125 L 350.675781 190 L 344.417969 190 L 344.417969 189.28125 C 346.015625 189.152344 346.632812 188.765625 346.738281 187.503906 C 346.8125 186.679688 346.867188 185.519531 346.867188 183.175781 L 346.867188 176.609375 C 346.867188 175.890625 346.8125 175.476562 346.351562 174.910156 C 345.859375 174.265625 345.320312 174.113281 344.058594 173.984375 L 344.058594 173.261719 L 347.921875 173.261719 L 358.839844 186.214844 L 358.839844 179.90625 C 358.839844 177.511719 358.789062 176.402344 358.710938 175.632812 C 358.632812 174.472656 358.039062 174.113281 355.980469 173.984375 L 355.980469 173.261719 L 362.339844 173.261719 Z M 332.167969 173.984375 C 330.03125 174.1875 329.824219 174.316406 329.824219 176.480469 L 329.824219 186.808594 C 329.824219 188.972656 330.054688 189.050781 332.167969 189.28125 L 332.167969 190 L 325.265625 190 L 325.265625 189.28125 C 327.402344 189.023438 327.609375 188.972656 327.609375 186.808594 L 327.609375 181.65625 L 318.800781 181.65625 L 318.800781 186.808594 C 318.800781 188.945312 319.007812 189.023438 321.121094 189.28125 L 321.121094 190 L 314.242188 190 L 314.242188 189.28125 C 316.328125 189.050781 316.5625 188.972656 316.5625 186.808594 L 316.5625 176.480469 C 316.5625 174.316406 316.328125 174.1875 314.242188 173.984375 L 314.242188 173.261719 L 321.121094 173.261719 L 321.121094 173.984375 C 319.058594 174.164062 318.800781 174.34375 318.800781 176.480469 L 318.800781 180.578125 L 327.609375 180.578125 L 327.609375 176.480469 C 327.609375 174.34375 327.324219 174.164062 325.265625 173.984375 L 325.265625 173.261719 L 332.167969 173.261719 Z M 301.992188 185.882812 C 301.632812 187.117188 300.960938 188.972656 300.574219 189.769531 C 299.828125 189.925781 297.820312 190.386719 295.863281 190.386719 C 289.707031 190.386719 286.566406 186.292969 286.566406 181.785156 C 286.566406 176.53125 290.558594 172.902344 296.328125 172.902344 C 298.539062 172.902344 300.34375 173.363281 301.195312 173.492188 C 301.296875 174.652344 301.476562 176.199219 301.683594 177.484375 L 300.882812 177.664062 C 300.371094 175.941406 299.75 174.886719 298.4375 174.34375 C 297.769531 174.035156 296.710938 173.855469 295.734375 173.855469 C 291.484375 173.855469 289.246094 176.996094 289.246094 181.246094 C 289.246094 186.214844 291.820312 189.410156 295.992188 189.410156 C 298.617188 189.410156 299.90625 188.199219 301.21875 185.625 Z M 274.957031 185.90625 C 274.804688 186.578125 274.105469 189.230469 273.851562 190 L 261.335938 190 L 261.335938 189.28125 C 263.730469 189.101562 263.910156 188.867188 263.910156 186.757812 L 263.910156 176.585938 C 263.910156 174.292969 263.625 174.164062 261.695312 173.984375 L 261.695312 173.261719 L 269.574219 173.261719 C 271.996094 173.261719 273 173.234375 273.308594 173.210938 C 273.335938 173.855469 273.4375 175.785156 273.539062 177.152344 L 272.769531 177.28125 C 272.535156 176.402344 272.277344 175.863281 271.996094 175.324219 C 271.582031 174.472656 270.992188 174.292969 269.445312 174.292969 L 267 174.292969 C 266.203125 174.292969 266.148438 174.371094 266.148438 175.117188 L 266.148438 180.808594 L 269.007812 180.808594 C 270.9375 180.808594 271.066406 180.421875 271.378906 178.671875 L 272.175781 178.671875 L 272.175781 183.976562 L 271.378906 183.976562 C 271.042969 182.121094 270.835938 181.863281 268.984375 181.863281 L 266.148438 181.863281 L 266.148438 186.988281 C 266.148438 188.792969 266.714844 188.945312 268.003906 188.972656 L 270.398438 188.972656 C 271.96875 188.972656 272.226562 188.738281 272.792969 188.070312 C 273.285156 187.53125 273.824219 186.472656 274.183594 185.699219 Z M 248.929688 177.304688 C 248.695312 176.480469 248.386719 175.632812 248.101562 175.167969 C 247.691406 174.472656 247.433594 174.292969 246.015625 174.292969 L 243.441406 174.292969 L 243.441406 186.832031 C 243.441406 188.84375 243.648438 189.125 246.09375 189.28125 L 246.09375 190 L 238.601562 190 L 238.601562 189.28125 C 240.996094 189.125 241.203125 188.867188 241.203125 186.832031 L 241.203125 174.292969 L 238.859375 174.292969 C 237.441406 174.292969 237.03125 174.445312 236.59375 175.21875 C 236.285156 175.734375 236.078125 176.351562 235.742188 177.304688 L 234.96875 177.304688 C 235.125 175.734375 235.277344 174.113281 235.355469 172.671875 L 235.949219 172.671875 C 236.335938 173.289062 236.617188 173.261719 237.339844 173.261719 L 247.535156 173.261719 C 248.257812 173.261719 248.464844 173.160156 248.851562 172.671875 L 249.46875 172.671875 C 249.46875 173.878906 249.570312 175.734375 249.699219 177.226562 Z M 248.929688 177.304688 "/>
</svg>
